<svg width="120" height="34" viewBox="0 0 120 34" fill="none" xmlns="http://www.w3.org/2000/svg">
<g clip-path="url(#clip0_16_156)">
<g clip-path="url(#clip1_16_156)">
<path d="M13.4728 16.1575C12.0516 15.1703 10.522 14.2474 8.34916 14.2309C6.91622 14.2193 5.20935 14.6398 3.0426 15.5622L5.72687 5.97072C11.1769 3.64681 13.7957 4.96429 16.1566 6.61069L13.4728 16.1575Z" fill="url(#paint0_radial_16_156)"/>
<path d="M13.3805 15.9017L15.9739 6.67632C14.8275 5.88373 13.6294 5.19113 12.0767 4.95821C10.4965 4.72116 8.52993 4.95781 5.85865 6.08656L3.28297 15.29C5.31805 14.4511 6.95514 14.0614 8.35044 14.0728M13.3805 15.9017C12.0021 14.9577 10.4787 14.089 8.35044 14.0728M13.3805 15.9017L13.3353 16.0624L13.3805 15.9017ZM8.35044 14.0728L8.34916 14.2309L8.35036 14.0728C8.35039 14.0728 8.35041 14.0728 8.35044 14.0728Z" stroke="white" stroke-opacity="0.1" stroke-width="0.316251"/>
<path d="M27.4248 7.59653C21.9822 9.91552 19.3673 8.61145 17.0111 6.97488L14.326 16.5749C16.6804 18.2208 19.5255 19.5705 24.7436 17.1634L27.4248 7.59653Z" fill="url(#paint1_radial_16_156)"/>
<path d="M17.1038 7.23067C18.236 8.003 19.4576 8.69195 21.0374 8.92547C22.6411 9.16251 24.5961 8.92798 27.1845 7.86833L24.6111 17.0503C22.055 18.2182 20.0904 18.4674 18.4838 18.2326C16.9044 18.0018 15.6532 17.301 14.5085 16.5092L17.1038 7.23067Z" stroke="white" stroke-opacity="0.1" stroke-width="0.316251"/>
<path d="M2.6899 16.7541C8.12172 14.4472 10.7509 15.678 13.1054 17.3261L10.386 26.9628C8.02289 25.3244 5.45349 23.9752 0 26.3L2.65783 16.768L2.6899 16.7541Z" fill="url(#paint2_radial_16_156)"/>
<path d="M0.239901 26.0284L2.78976 16.8835C5.46889 15.7511 7.44348 15.4943 9.03001 15.7136C10.5819 15.9281 11.7806 16.6003 12.9226 17.3916L10.2938 26.7074C9.16041 25.9337 7.94777 25.233 6.37616 24.989C4.78055 24.7412 2.83319 24.9664 0.239901 26.0284Z" stroke="white" stroke-opacity="0.1" stroke-width="0.316251"/>
<path d="M13.9264 17.8098C16.2877 19.4477 18.7028 20.6489 24.253 18.6924L21.6623 27.984C16.2149 30.307 13.5991 28.9918 11.2404 27.3427L13.9264 17.8098Z" fill="url(#paint3_radial_16_156)"/>
<path d="M11.4231 27.2772L14.0187 18.0652C15.1484 18.8357 16.3236 19.5024 17.8683 19.755C19.4394 20.012 21.376 19.8383 24.0196 18.9405L21.5304 27.8682C18.8605 28.9965 16.8954 29.2334 15.3166 28.9965C13.7653 28.7637 12.5684 28.071 11.4231 27.2772Z" stroke="white" stroke-opacity="0.1" stroke-width="0.316251"/>
</g>
<path d="M48.6162 27.0695H46.0496L42.9697 21.9106C42.6874 21.4315 42.4136 21.0251 42.1484 20.6915C41.8831 20.3492 41.6094 20.0712 41.327 19.8573C41.0533 19.6434 40.7538 19.4894 40.4287 19.3953C40.1122 19.2926 39.7529 19.2413 39.3508 19.2413H37.5798V27.0695H35.4238V8.66685H40.9164C41.7206 8.66685 42.4606 8.76952 43.1365 8.97485C43.8209 9.17162 44.4113 9.47534 44.9075 9.886C45.4122 10.2967 45.8058 10.81 46.0881 11.426C46.3705 12.0334 46.5116 12.7478 46.5116 13.5691C46.5116 14.2107 46.4132 14.8011 46.2165 15.3401C46.0282 15.8705 45.7545 16.3453 45.3951 16.7645C45.0444 17.1837 44.6166 17.5431 44.1118 17.8425C43.6156 18.1334 43.0552 18.3601 42.4307 18.5227V18.574C42.7387 18.7109 43.0039 18.8692 43.2263 19.0488C43.4573 19.2199 43.6755 19.4253 43.8808 19.6648C44.0862 19.9044 44.2872 20.1781 44.484 20.4861C44.6893 20.7856 44.916 21.1363 45.1641 21.5384L48.6162 27.0695ZM37.5798 10.6175V17.2907H40.5057C41.0447 17.2907 41.5409 17.2094 41.9944 17.0469C42.4564 16.8843 42.8542 16.6533 43.1878 16.3539C43.5215 16.0459 43.7824 15.6737 43.9707 15.2374C44.1589 14.7925 44.253 14.2963 44.253 13.7488C44.253 12.7649 43.9322 11.9992 43.2905 11.4516C42.6574 10.8955 41.7377 10.6175 40.5314 10.6175H37.5798Z" fill="black"/>
<path d="M59.6152 21.0251H50.3369C50.3711 22.4881 50.7647 23.6174 51.5175 24.4131C52.2704 25.2087 53.3056 25.6065 54.6232 25.6065C56.1032 25.6065 57.4635 25.1189 58.7041 24.1436V26.1199C57.5491 26.9583 56.022 27.3775 54.1227 27.3775C52.2661 27.3775 50.8074 26.7829 49.7466 25.5937C48.6857 24.3959 48.1553 22.7148 48.1553 20.5503C48.1553 18.5056 48.7328 16.8415 49.8877 15.5582C51.0513 14.2664 52.4929 13.6204 54.2125 13.6204C55.9321 13.6204 57.2625 14.1765 58.2036 15.2887C59.1447 16.4009 59.6152 17.9452 59.6152 19.9215V21.0251ZM57.4593 19.2413C57.4507 18.0265 57.1556 17.0811 56.5738 16.4052C56.0006 15.7293 55.2006 15.3914 54.174 15.3914C53.1816 15.3914 52.3389 15.7464 51.6459 16.4565C50.9529 17.1666 50.5251 18.0949 50.3626 19.2413H57.4593Z" fill="black"/>
<path d="M72.3852 27.0695H70.2805V24.9905H70.2292C69.3566 26.5818 68.0048 27.3775 66.174 27.3775C63.0427 27.3775 61.4771 25.5124 61.4771 21.7823V13.9284H63.5688V21.4486C63.5688 24.2206 64.6297 25.6065 66.7514 25.6065C67.7781 25.6065 68.6208 25.2301 69.2796 24.4772C69.9469 23.7158 70.2805 22.7234 70.2805 21.4999V13.9284H72.3852V27.0695Z" fill="black"/>
<path d="M86.5026 27.0695H84.398V19.575C84.398 16.7859 83.3799 15.3914 81.3437 15.3914C80.2914 15.3914 79.4187 15.7892 78.7257 16.5849C78.0413 17.372 77.6991 18.3687 77.6991 19.575V27.0695H75.5945V13.9284H77.6991V16.11H77.7504C78.7429 14.4503 80.1802 13.6204 82.0624 13.6204C83.4997 13.6204 84.599 14.0867 85.3605 15.0192C86.1219 15.9432 86.5026 17.2821 86.5026 19.036V27.0695Z" fill="black"/>
<path d="M90.5075 10.5918C90.1311 10.5918 89.8103 10.4635 89.5451 10.2068C89.2799 9.95016 89.1472 9.62506 89.1472 9.23151C89.1472 8.83796 89.2799 8.51286 89.5451 8.25619C89.8103 7.99098 90.1311 7.85837 90.5075 7.85837C90.8925 7.85837 91.2176 7.99098 91.4829 8.25619C91.7566 8.51286 91.8935 8.83796 91.8935 9.23151C91.8935 9.60795 91.7566 9.92877 91.4829 10.194C91.2176 10.4592 90.8925 10.5918 90.5075 10.5918ZM91.5342 27.0695H89.4296V13.9284H91.5342V27.0695Z" fill="black"/>
<path d="M100.236 27.3775C98.294 27.3775 96.7412 26.7658 95.5776 25.5424C94.4227 24.3104 93.8452 22.6806 93.8452 20.653C93.8452 18.4457 94.4483 16.7218 95.6546 15.4812C96.861 14.2407 98.4908 13.6204 100.544 13.6204C102.503 13.6204 104.03 14.2236 105.125 15.4299C106.229 16.6362 106.781 18.3088 106.781 20.4476C106.781 22.5437 106.186 24.2248 104.997 25.491C103.816 26.7487 102.229 27.3775 100.236 27.3775ZM100.39 15.3914C99.0383 15.3914 97.9689 15.8534 97.1818 16.7774C96.3947 17.6928 96.0011 18.959 96.0011 20.576C96.0011 22.133 96.399 23.3607 97.1946 24.2591C97.9903 25.1574 99.0554 25.6065 100.39 25.6065C101.75 25.6065 102.794 25.1659 103.521 24.2847C104.257 23.4035 104.625 22.1502 104.625 20.5246C104.625 18.882 104.257 17.6158 103.521 16.726C102.794 15.8363 101.75 15.3914 100.39 15.3914Z" fill="black"/>
<path d="M120 27.0695H117.895V19.575C117.895 16.7859 116.877 15.3914 114.841 15.3914C113.789 15.3914 112.916 15.7892 112.223 16.5849C111.539 17.372 111.197 18.3687 111.197 19.575V27.0695H109.092V13.9284H111.197V16.11H111.248C112.24 14.4503 113.678 13.6204 115.56 13.6204C116.997 13.6204 118.096 14.0867 118.858 15.0192C119.619 15.9432 120 17.2821 120 19.036V27.0695Z" fill="black"/>
</g>
<defs>
<radialGradient id="paint0_radial_16_156" cx="0" cy="0" r="1" gradientUnits="userSpaceOnUse" gradientTransform="translate(12.8469 15.291) rotate(-124.796) scale(9.92182 11.4474)">
<stop stop-color="#F2D92B"/>
<stop offset="1" stop-color="#C21C1E"/>
</radialGradient>
<radialGradient id="paint1_radial_16_156" cx="0" cy="0" r="1" gradientUnits="userSpaceOnUse" gradientTransform="translate(14.3555 16.5839) rotate(-30.6727) scale(13.1661 15.225)">
<stop stop-color="#B4D65D"/>
<stop offset="1" stop-color="#2A632E"/>
</radialGradient>
<radialGradient id="paint2_radial_16_156" cx="0" cy="0" r="1" gradientUnits="userSpaceOnUse" gradientTransform="translate(12.8011 17.5997) rotate(152.322) scale(11.6911 13.5582)">
<stop stop-color="#CBE4EB"/>
<stop offset="1" stop-color="#235098"/>
</radialGradient>
<radialGradient id="paint3_radial_16_156" cx="0" cy="0" r="1" gradientUnits="userSpaceOnUse" gradientTransform="translate(13.8527 17.8307) rotate(51.8765) scale(11.4109 13.0926)">
<stop stop-color="#F6EA94"/>
<stop offset="1" stop-color="#F37F18"/>
</radialGradient>
<clipPath id="clip0_16_156">
<rect width="120" height="34" fill="white"/>
</clipPath>
<clipPath id="clip1_16_156">
<rect width="27.4249" height="27.4249" fill="white" transform="translate(0 3.28754)"/>
</clipPath>
</defs>
</svg>
