<svg width="84" height="10" viewBox="0 0 84 10" fill="none" xmlns="http://www.w3.org/2000/svg">
<path d="M4.728 2.37602L4.428 4.09202H5.544C6.42 4.09202 6.924 3.87602 7.032 3.27602C7.14 2.66402 6.708 2.37602 6.048 2.37602H4.728ZM4.956 5.98802H4.092L3.564 9.00002H0.732002L2.256 0.360019H6.336C9.216 0.360019 10.02 1.14002 9.732 2.82002C9.552 3.81602 8.964 4.65602 7.908 4.93202C8.76 5.26802 9.276 5.48402 8.964 7.22402C8.772 8.35202 8.664 8.73602 9 8.73602L8.952 9.00002H6.084C6.048 8.80802 6.072 8.25602 6.204 7.48802C6.408 6.36002 6.276 5.98802 4.956 5.98802Z" fill="black"/>
<path d="M12.0398 5.14802H14.3078C14.4158 4.57202 13.9958 4.05602 13.4078 4.05602C12.6638 4.05602 12.1598 4.47602 12.0398 5.14802ZM16.5878 6.42002H11.8238C11.6918 7.16402 12.1838 7.65602 12.8438 7.65602C13.2398 7.65602 13.6238 7.47602 13.8758 7.10402H16.2638C15.5558 8.66402 13.8758 9.18002 12.4118 9.18002C10.3958 9.18002 9.03985 8.02802 9.41185 5.91602C9.78385 3.85202 11.5598 2.53202 13.5758 2.53202C15.9038 2.53202 17.0198 4.14002 16.5878 6.42002Z" fill="black"/>
<path d="M24.1838 2.71202L23.0798 9.00002H20.7638L20.9318 8.07602C20.1518 8.94002 19.4918 9.18002 18.4598 9.18002C17.0918 9.18002 16.3598 8.34002 16.6718 6.54002L17.3438 2.71202H19.8398L19.2398 6.10802C19.0958 6.97202 19.3478 7.24802 19.9478 7.24802C20.6678 7.24802 20.9918 6.70802 21.1598 5.73602L21.6878 2.71202H24.1838Z" fill="black"/>
<path d="M23.4037 9.00002L24.5077 2.71202H26.7877L26.6197 3.69602C27.3157 2.94002 27.9997 2.53202 28.9477 2.53202C30.6037 2.53202 31.2157 3.50402 30.9037 5.23202L30.2437 9.00002H27.7477L28.3357 5.67602C28.4437 5.05202 28.3717 4.50002 27.6637 4.50002C26.8957 4.50002 26.6077 4.99202 26.4637 5.79602L25.8997 9.00002H23.4037Z" fill="black"/>
<path d="M33.2316 9.00002H30.7356L31.8396 2.71202H34.3356L33.2316 9.00002ZM31.9836 1.90802L32.2956 0.132019H34.7916L34.4796 1.90802H31.9836Z" fill="black"/>
<path d="M38.0077 4.21202C37.1557 4.21202 36.7477 5.08802 36.6277 5.79602C36.4237 6.98402 36.7717 7.50002 37.4077 7.50002C38.0797 7.50002 38.5837 6.98402 38.7877 5.79602C38.9557 4.87202 38.6677 4.17602 38.0077 4.21202ZM34.1077 5.92802C34.4917 3.74402 36.1477 2.53202 38.2717 2.53202C40.4917 2.53202 41.6317 3.84002 41.2837 5.79602C40.8757 8.10002 39.1237 9.18002 37.1077 9.18002C35.0917 9.18002 33.7357 8.07602 34.1077 5.92802Z" fill="black"/>
<path d="M40.8876 9.00002L41.9916 2.71202H44.2716L44.1036 3.69602C44.7996 2.94002 45.4836 2.53202 46.4316 2.53202C48.0876 2.53202 48.6996 3.50402 48.3876 5.23202L47.7276 9.00002H45.2316L45.8196 5.67602C45.9276 5.05202 45.8556 4.50002 45.1476 4.50002C44.3796 4.50002 44.0916 4.99202 43.9476 5.79602L43.3836 9.00002H40.8876Z" fill="black"/>
<path d="M52.1196 2.62802L52.5276 0.360019H60.4476L60.0396 2.62802H57.4956L56.3796 9.00002H53.5476L54.6636 2.62802H52.1196Z" fill="black"/>
<path d="M60.6558 5.14802H62.9238C63.0318 4.57202 62.6118 4.05602 62.0238 4.05602C61.2798 4.05602 60.7758 4.47602 60.6558 5.14802ZM65.2038 6.42002H60.4398C60.3078 7.16402 60.7998 7.65602 61.4598 7.65602C61.8558 7.65602 62.2398 7.47602 62.4918 7.10402H64.8798C64.1718 8.66402 62.4918 9.18002 61.0278 9.18002C59.0118 9.18002 57.6558 8.02802 58.0278 5.91602C58.3998 3.85202 60.1758 2.53202 62.1918 2.53202C64.5198 2.53202 65.6358 4.14002 65.2038 6.42002Z" fill="black"/>
<path d="M71.8877 9.00002H69.3077V8.32802C68.4797 8.98802 67.7237 9.18002 66.7877 9.18002C65.5997 9.18002 64.6517 8.59202 64.8797 7.28402C65.3837 4.42802 69.6317 5.72402 69.8357 4.54802C69.9197 4.09202 69.3797 4.03202 69.1157 4.03202C68.7677 4.03202 68.2877 4.10402 68.1317 4.64402H65.7317C65.9597 3.31202 67.0517 2.53202 69.5357 2.53202C72.5117 2.53202 72.4997 3.63602 72.2357 5.13602L71.7197 8.07602C71.6477 8.43602 71.6357 8.61602 71.9117 8.88002L71.8877 9.00002ZM68.1677 7.76402C69.0437 7.76402 69.4517 7.08002 69.5477 6.21602C68.6597 6.61202 67.6157 6.42002 67.4717 7.23602C67.4117 7.54802 67.6757 7.76402 68.1677 7.76402Z" fill="black"/>
<path d="M71.9836 9.00002L73.0876 2.71202H75.3796L75.2116 3.64802C75.6196 3.16802 76.5076 2.53202 77.4076 2.53202C78.5356 2.53202 79.0756 3.01202 79.2556 3.68402C79.9276 2.92802 80.7076 2.53202 81.6316 2.53202C83.4676 2.53202 83.8636 3.56402 83.5636 5.28002L82.9036 9.00002H80.4076L80.9716 5.79602C81.1396 4.87202 81.0196 4.50002 80.3596 4.50002C79.6276 4.50002 79.3756 5.13602 79.2436 5.89202L78.6916 9.00002H76.1956L76.7596 5.79602C76.9276 4.87202 76.8076 4.50002 76.1476 4.50002C75.4156 4.50002 75.1636 5.13602 75.0316 5.89202L74.4796 9.00002H71.9836Z" fill="black"/>
</svg>
